<svg version="1.1" xmlns="http://www.w3.org/2000/svg" viewBox="-12.739788438972072 -9.80208328210497 21.567985273623126 18.85019791322641" fill="none" stroke="black" stroke-width="0.6%" vector-effect="non-scaling-stroke">
    <path d="M 6.9614 4.56679 A 5 2.51885 352.80707 0 1 5.91234 6.38935 A 5 1.92092 0 0 1 -1.11365 6.69562 L -1.11365 -1.8654 L -3.9166 0.21968 L -11.73979 -2.17333 L -6.36739 -6.16977 L -0.91211 -8.80208" />
    <path d="M 5.30704 -2.59872 L 5.3539 -1.96143 L 5.40023 -1.32301 L 5.44602 -0.68355 L 5.49127 -0.04317 L 5.53597 0.59803 L 5.58011 1.23996 L 5.62369 1.88252 L 5.66669 2.5256 L 5.70912 3.1691 L 5.75096 3.81291 L 5.79221 4.45695 L 5.83286 5.1011 L 5.8729 5.74527 L 5.91234 6.38935" />
    <path d="M 4.06488 -5.03572 L 4.29436 -4.96101 L 4.51157 -4.88105 L 4.71572 -4.79613 L 4.90606 -4.70655 L 5.08192 -4.61264 L 5.24266 -4.51474 L 5.38768 -4.41321 L 5.51647 -4.3084 L 5.62857 -4.2007 L 5.72356 -4.09051 L 5.80111 -3.97821 L 5.86093 -3.86421 L 5.9028 -3.74894 L 5.92657 -3.6328 L 5.9323 -3.55634 L 5.93019 -3.47981 L 5.92025 -3.40332 L 5.90249 -3.327 L 5.87694 -3.25097 L 5.84365 -3.17534 L 5.80265 -3.10023 L 5.75403 -3.02576 L 5.69785 -2.95204 L 5.63419 -2.87919 L 5.56317 -2.80732 L 5.48489 -2.73655 L 5.39947 -2.66698 L 5.30704 -2.59872 L 4.91755 -2.40051 L 4.49912 -2.21996 L 4.05591 -2.05888 L 3.59231 -1.91886 L 3.11293 -1.80129 L 2.62251 -1.70734 L 2.12593 -1.63793 L 1.62811 -1.59376 L 1.13398 -1.57527 L 0.64845 -1.58263 L 0.17633 -1.61578 L -0.27769 -1.67439 L -0.70911 -1.75787 L -1.11365 -1.8654" />
    <path d="M 7.8282 0.85789 L 6.60788 1.76567" />
    <path d="M 6.91107 -6.40908 L -0.91211 -8.80208" />
    <path d="M 4.06488 -5.03572 L 6.91107 -6.40908" />
    <path d="M 5.30704 -2.59872 L -6.36739 -6.16977" />
    <path d="M 7.8282 0.85789 L 6.91107 -6.40908" />
    <path d="M -11.73979 5.65511 L -11.73979 -2.17333" />
    <path d="M -1.11365 6.69562 L -3.9166 8.04811 L -3.9166 0.21968" />
    <path d="M -3.9166 8.04811 L -11.73979 5.65511" />
    <path d="M 5.92657 -3.6328 L 6.9614 4.56679" />
</svg>