<svg version="1.1" xmlns="http://www.w3.org/2000/svg" viewBox="-12.757009374046822 -10.251134489167795 21.616121424908307 19.325016031325994" fill="none" stroke="black" stroke-width="0.6%" vector-effect="non-scaling-stroke">
    <path d="M 5.07312 -5.52551 A 5 1.91549 360 0 1 6.97758 -4.02126 A 5 1.91549 360 0 1 -1.11797 -2.51702 L -3.90396 -1.16319 L -11.75701 -3.53499 L 0.00606 -9.25113 L 7.85911 -6.87933 L 5.07312 -5.52551 Z" />
    <path d="M -1.11797 6.72006 L -1.11797 -2.51702" />
    <path d="M -1.11797 6.72006 A 5 1.91549 180 0 0 6.97758 5.21581" />
    <path d="M 7.85911 2.35774 L 7.85911 -6.87933" />
    <path d="M 7.85911 2.35774 L 6.97758 2.78611" />
    <path d="M -1.11797 6.72006 L -3.90396 8.07388 L -3.90396 -1.16319" />
    <path d="M -3.90396 8.07388 L -11.75701 5.70208 L -11.75701 -3.53499" />
    <path d="M -3.91221 -5.80011 A 2.5 0.95775 360 0 1 0.55105 -5.20716 A 2.5 0.95775 360 0 1 -4.44895 -5.20716 A 2.5 0.95775 360 0 1 -3.91221 -5.80011 Z" />
    <path d="M 6.97758 -4.02126 L 6.97758 5.21581" />
</svg>